<!-- Generator: Adobe Illustrator 22.1.0, SVG Export Plug-In  -->
<svg version="1.1"
	 xmlns="http://www.w3.org/2000/svg" xmlns:xlink="http://www.w3.org/1999/xlink" xmlns:a="http://ns.adobe.com/AdobeSVGViewerExtensions/3.0/"
	 x="0px" y="0px" width="262.7px" height="50px" viewBox="0 0 262.7 50"
	 style="overflow:scroll;enable-background:new 0 0 262.7 50;" xml:space="preserve">
<style type="text/css">
	.st0{fill:#0C0321;}
	.st1{display:none;}
	.st2{display:inline;fill:#F9F7FF;}
	.st3{fill:#F9F7FF;}
	.st4{display:inline;fill:#0C0321;}
</style>
<defs>
</defs>
<g>
	<path class="st0" d="M40,50H10C4.5,50,0,45.5,0,40V10C0,4.5,4.5,0,10,0h30c5.5,0,10,4.5,10,10v30C50,45.5,45.5,50,40,50z"/>
	<g class="st1">
		<path class="st2" d="M23.9,16l-0.6,3.1H23c-0.6,0-1,0.1-1.3,0.3c-0.3,0.2-0.5,0.6-0.6,1.1l-0.6,2.8c-0.2,0.8-0.4,1.5-0.7,1.9
			c-0.3,0.4-0.8,0.7-1.4,0.8c0.8,0.3,1.2,0.9,1.2,1.8c0,0.3,0,0.5-0.1,0.8L19,31.3c0,0.1,0,0.3,0,0.4c0,0.4,0.1,0.7,0.3,0.9
			c0.2,0.2,0.5,0.3,0.9,0.3h0.3L19.9,36h-1.4c-1.2,0-2.1-0.3-2.7-0.9c-0.7-0.6-1-1.4-1-2.4c0-0.3,0-0.6,0.1-1l0.6-3.3
			c0-0.1,0-0.2,0-0.3c0-0.5-0.3-0.7-0.7-0.7H14l0.6-3.1h0.7c0.3,0,0.5-0.1,0.7-0.2c0.2-0.2,0.3-0.4,0.4-0.7l0.7-3.3
			c0.3-1.5,0.8-2.5,1.7-3.2c0.8-0.7,2-1,3.6-1H23.9z"/>
		<path class="st2" d="M32.1,24.5l-0.6,3.1h-0.7c-0.3,0-0.5,0.1-0.7,0.2c-0.2,0.2-0.3,0.4-0.4,0.7L29,31.9c-0.3,1.5-0.8,2.5-1.7,3.2
			c-0.8,0.7-2,1-3.6,1h-1.4l0.6-3.1h0.3c0.6,0,1-0.1,1.3-0.3c0.3-0.2,0.5-0.6,0.6-1.1l0.6-2.8c0.2-0.8,0.4-1.5,0.7-1.9
			c0.3-0.4,0.8-0.7,1.4-0.8c-0.8-0.3-1.2-0.9-1.2-1.8c0-0.3,0-0.5,0.1-0.8l0.5-2.6c0-0.1,0-0.3,0-0.4c0-0.4-0.1-0.7-0.3-0.9
			c-0.2-0.2-0.5-0.3-0.9-0.3h-0.3l0.6-3.1h1.4c1.2,0,2.1,0.3,2.8,0.9c0.7,0.6,1,1.4,1,2.4c0,0.3,0,0.6-0.1,1l-0.6,3.3
			c0,0.1,0,0.2,0,0.3c0,0.5,0.2,0.7,0.7,0.7H32.1z"/>
	</g>
	<g>
		<path class="st3" d="M33.1,30.2c0.4,0.6,0.5,1.2,0.4,1.9s-0.4,1.2-0.9,1.7s-1.1,0.7-1.8,0.7h-12c-0.7,0-1.3-0.2-1.8-0.7
			s-0.8-1-0.9-1.7c-0.1-0.7,0-1.3,0.4-1.9l4.6-7.3V17h-0.3c-0.3,0-0.5-0.1-0.7-0.3s-0.3-0.4-0.3-0.7v-0.6c0-0.3,0.1-0.5,0.3-0.7
			s0.4-0.3,0.7-0.3h8.1c0.3,0,0.5,0.1,0.7,0.3s0.3,0.4,0.3,0.7v0.6c0,0.3-0.1,0.5-0.3,0.7S29.1,17,28.8,17h-0.3v5.9L33.1,30.2z
			 M21.4,27h6.7l-1.9-3c-0.2-0.2-0.2-0.4-0.2-0.7V17h-2.5v6.3c0,0.3-0.1,0.5-0.2,0.7L21.4,27z"/>
	</g>
	<g>
		<path class="st0" d="M70,15.4h2.5v19.4H70V15.4z"/>
		<path class="st0" d="M85.5,22.2c1,0.9,1.5,2.4,1.5,4.2v8.4h-2.4V33c-0.4,0.6-1,1.1-1.8,1.5c-0.8,0.3-1.7,0.5-2.8,0.5
			c-1.6,0-2.8-0.4-3.7-1.1c-0.9-0.8-1.4-1.7-1.4-3c0-1.2,0.4-2.2,1.3-2.9c0.9-0.7,2.3-1.1,4.2-1.1h4v-0.5c0-1.1-0.3-1.9-0.9-2.5
			C82.9,23.3,82,23,80.8,23c-0.8,0-1.6,0.1-2.4,0.4c-0.8,0.3-1.5,0.6-2,1.1l-1-1.9c0.7-0.6,1.6-1,2.6-1.3c1-0.3,2.1-0.5,3.2-0.5
			C83,20.8,84.5,21.3,85.5,22.2z M83,32.4c0.7-0.4,1.2-1,1.5-1.8v-1.9h-3.9c-2.1,0-3.2,0.7-3.2,2.1c0,0.7,0.3,1.2,0.8,1.7
			c0.5,0.4,1.3,0.6,2.3,0.6C81.4,33.1,82.3,32.8,83,32.4z"/>
		<path class="st0" d="M101.3,21.7c1.1,0.6,1.9,1.4,2.5,2.5c0.6,1.1,0.9,2.3,0.9,3.7c0,1.4-0.3,2.6-0.9,3.7
			c-0.6,1.1-1.4,1.9-2.5,2.5c-1.1,0.6-2.3,0.9-3.6,0.9c-1,0-2-0.2-2.8-0.6c-0.9-0.4-1.6-1-2.1-1.8v2.2h-2.4V15.4h2.5V23
			c0.6-0.7,1.3-1.3,2.1-1.7c0.8-0.4,1.8-0.6,2.8-0.6C99.1,20.8,100.3,21.1,101.3,21.7z M99.9,32.2c0.7-0.4,1.3-1,1.7-1.7
			c0.4-0.7,0.6-1.6,0.6-2.6c0-1-0.2-1.8-0.6-2.6c-0.4-0.7-1-1.3-1.7-1.7c-0.7-0.4-1.5-0.6-2.4-0.6c-0.9,0-1.7,0.2-2.4,0.6
			c-0.7,0.4-1.3,1-1.7,1.7c-0.4,0.7-0.6,1.6-0.6,2.6c0,1,0.2,1.8,0.6,2.6c0.4,0.7,1,1.3,1.7,1.7c0.7,0.4,1.5,0.6,2.4,0.6
			C98.4,32.8,99.2,32.6,99.9,32.2z"/>
		<path class="st0" d="M107.6,34.5c-1-0.3-1.9-0.7-2.5-1.2l1-2c0.6,0.4,1.4,0.8,2.2,1c0.9,0.3,1.8,0.4,2.6,0.4
			c2.2,0,3.3-0.6,3.3-1.9c0-0.4-0.1-0.8-0.4-1c-0.3-0.2-0.7-0.4-1.1-0.5c-0.4-0.1-1.1-0.2-1.9-0.4c-1.1-0.2-2-0.4-2.7-0.6
			c-0.7-0.2-1.3-0.6-1.8-1.2c-0.5-0.5-0.8-1.3-0.8-2.3c0-1.3,0.5-2.3,1.6-3s2.5-1.1,4.2-1.1c0.9,0,1.9,0.1,2.8,0.3
			c0.9,0.2,1.7,0.5,2.3,0.9l-1.1,2c-1.1-0.7-2.5-1.1-4-1.1c-1.1,0-1.9,0.2-2.4,0.5c-0.6,0.3-0.8,0.8-0.8,1.4c0,0.5,0.2,0.8,0.5,1.1
			c0.3,0.3,0.7,0.5,1.2,0.6c0.5,0.1,1.1,0.3,2,0.4c1.1,0.2,2,0.4,2.7,0.6s1.3,0.6,1.8,1.1c0.5,0.5,0.7,1.3,0.7,2.2
			c0,1.3-0.5,2.3-1.6,3c-1.1,0.7-2.5,1.1-4.4,1.1C109.8,35,108.7,34.8,107.6,34.5z"/>
		<path class="st0" d="M118.1,34.5c-0.3-0.3-0.5-0.8-0.5-1.3c0-0.5,0.2-0.9,0.5-1.3c0.3-0.3,0.8-0.5,1.3-0.5c0.5,0,0.9,0.2,1.2,0.5
			c0.3,0.3,0.5,0.8,0.5,1.3s-0.2,1-0.5,1.3c-0.3,0.3-0.7,0.5-1.2,0.5C118.9,35,118.4,34.8,118.1,34.5z"/>
		<path class="st0" d="M144.9,22.3c1,1,1.5,2.5,1.5,4.5v8h-2.5v-7.7c0-1.3-0.3-2.4-0.9-3c-0.6-0.7-1.5-1-2.7-1c-1.3,0-2.3,0.4-3,1.2
			c-0.8,0.8-1.1,1.9-1.1,3.4v7.2h-2.5v-7.7c0-1.3-0.3-2.4-0.9-3c-0.6-0.7-1.5-1-2.7-1c-1.3,0-2.3,0.4-3,1.2
			c-0.8,0.8-1.1,1.9-1.1,3.4v7.2h-2.5V20.9h2.4V23c0.5-0.7,1.2-1.3,2-1.6c0.8-0.4,1.8-0.6,2.8-0.6c1.1,0,2,0.2,2.9,0.7
			c0.8,0.4,1.5,1.1,1.9,1.9c0.5-0.8,1.3-1.4,2.2-1.9c0.9-0.5,2-0.7,3.2-0.7C142.5,20.8,143.9,21.3,144.9,22.3z"/>
		<path class="st0" d="M159.3,22.2c1,0.9,1.5,2.4,1.5,4.2v8.4h-2.4V33c-0.4,0.6-1,1.1-1.8,1.5c-0.8,0.3-1.7,0.5-2.8,0.5
			c-1.6,0-2.8-0.4-3.7-1.1c-0.9-0.8-1.4-1.7-1.4-3c0-1.2,0.4-2.2,1.3-2.9c0.9-0.7,2.3-1.1,4.2-1.1h4v-0.5c0-1.1-0.3-1.9-0.9-2.5
			c-0.6-0.6-1.6-0.9-2.8-0.9c-0.8,0-1.6,0.1-2.4,0.4s-1.5,0.6-2,1.1l-1-1.9c0.7-0.6,1.6-1,2.6-1.3c1-0.3,2.1-0.5,3.2-0.5
			C156.8,20.8,158.2,21.3,159.3,22.2z M156.8,32.4c0.7-0.4,1.2-1,1.5-1.8v-1.9h-3.9c-2.1,0-3.2,0.7-3.2,2.1c0,0.7,0.3,1.2,0.8,1.7
			c0.5,0.4,1.3,0.6,2.3,0.6C155.2,33.1,156.1,32.8,156.8,32.4z"/>
		<path class="st0" d="M172,34c-0.4,0.3-0.8,0.6-1.4,0.7c-0.5,0.2-1.1,0.2-1.7,0.2c-1.4,0-2.5-0.4-3.2-1.1c-0.8-0.8-1.2-1.8-1.2-3.2
			V23h-2.4v-2.1h2.4v-3h2.5v3h4V23h-4v7.5c0,0.8,0.2,1.3,0.6,1.7c0.4,0.4,0.9,0.6,1.6,0.6c0.8,0,1.4-0.2,2-0.7L172,34z"/>
		<path class="st0" d="M185.3,22.4c1,1,1.6,2.5,1.6,4.5v8h-2.5v-7.7c0-1.3-0.3-2.4-1-3c-0.6-0.7-1.6-1-2.8-1c-1.4,0-2.4,0.4-3.2,1.2
			c-0.8,0.8-1.2,1.9-1.2,3.4v7.2h-2.5V15.4h2.5v7.5c0.5-0.7,1.2-1.2,2.1-1.5c0.8-0.4,1.8-0.6,2.8-0.6
			C182.9,20.8,184.3,21.3,185.3,22.4z"/>
		<path class="st0" d="M202.8,28.7h-11.3c0.2,1.2,0.7,2.2,1.6,2.9c0.9,0.7,2.1,1.1,3.4,1.1c1.7,0,3-0.6,4-1.7l1.4,1.6
			c-0.6,0.7-1.4,1.3-2.3,1.7c-0.9,0.4-2,0.6-3.1,0.6c-1.5,0-2.8-0.3-3.9-0.9c-1.1-0.6-2-1.4-2.6-2.5c-0.6-1.1-0.9-2.3-0.9-3.7
			c0-1.3,0.3-2.6,0.9-3.6c0.6-1.1,1.4-1.9,2.5-2.5c1.1-0.6,2.2-0.9,3.6-0.9c1.3,0,2.5,0.3,3.6,0.9s1.9,1.4,2.4,2.5
			c0.6,1.1,0.9,2.3,0.9,3.7C202.9,28.2,202.9,28.4,202.8,28.7z M193,24c-0.8,0.7-1.3,1.7-1.4,2.9h8.9c-0.1-1.2-0.6-2.1-1.4-2.9
			c-0.8-0.7-1.8-1.1-3-1.1S193.8,23.3,193,24z"/>
		<path class="st0" d="M218,20.9v13.9h-2.4v-2.1c-0.5,0.7-1.2,1.3-2,1.7c-0.8,0.4-1.7,0.6-2.7,0.6c-1.9,0-3.3-0.5-4.4-1.5
			c-1.1-1-1.6-2.5-1.6-4.5v-8h2.5v7.7c0,1.3,0.3,2.4,1,3.1c0.6,0.7,1.6,1,2.8,1c1.3,0,2.4-0.4,3.1-1.2c0.8-0.8,1.2-1.9,1.2-3.4v-7.2
			H218z"/>
		<path class="st0" d="M222.2,34.5c-1-0.3-1.9-0.7-2.5-1.2l1-2c0.6,0.4,1.4,0.8,2.2,1c0.9,0.3,1.8,0.4,2.6,0.4
			c2.2,0,3.3-0.6,3.3-1.9c0-0.4-0.1-0.8-0.4-1c-0.3-0.2-0.7-0.4-1.1-0.5c-0.4-0.1-1.1-0.2-1.9-0.4c-1.1-0.2-2-0.4-2.7-0.6
			c-0.7-0.2-1.3-0.6-1.8-1.2c-0.5-0.5-0.8-1.3-0.8-2.3c0-1.3,0.5-2.3,1.6-3c1-0.8,2.5-1.1,4.2-1.1c0.9,0,1.9,0.1,2.8,0.3
			c0.9,0.2,1.7,0.5,2.3,0.9l-1.1,2c-1.1-0.7-2.5-1.1-4-1.1c-1.1,0-1.9,0.2-2.4,0.5c-0.6,0.3-0.8,0.8-0.8,1.4c0,0.5,0.2,0.8,0.5,1.1
			c0.3,0.3,0.7,0.5,1.2,0.6c0.5,0.1,1.1,0.3,2,0.4c1.1,0.2,2,0.4,2.7,0.6c0.7,0.2,1.3,0.6,1.8,1.1c0.5,0.5,0.7,1.3,0.7,2.2
			c0,1.3-0.5,2.3-1.6,3c-1.1,0.7-2.5,1.1-4.4,1.1C224.3,35,223.2,34.8,222.2,34.5z"/>
		<path class="st0" d="M232.6,34.5c-0.3-0.3-0.5-0.8-0.5-1.3c0-0.5,0.2-0.9,0.5-1.3c0.3-0.3,0.8-0.5,1.3-0.5c0.5,0,0.9,0.2,1.2,0.5
			c0.3,0.3,0.5,0.8,0.5,1.3s-0.2,1-0.5,1.3c-0.3,0.3-0.7,0.5-1.2,0.5C233.4,35,233,34.8,232.6,34.5z"/>
		<path class="st0" d="M238,17.8c-0.3-0.3-0.5-0.7-0.5-1.2c0-0.5,0.2-0.8,0.5-1.2c0.3-0.3,0.7-0.5,1.2-0.5c0.5,0,0.9,0.2,1.2,0.5
			c0.3,0.3,0.5,0.7,0.5,1.1c0,0.5-0.2,0.9-0.5,1.2c-0.3,0.3-0.7,0.5-1.2,0.5C238.7,18.3,238.3,18.1,238,17.8z M237.9,20.9h2.5v13.9
			h-2.5V20.9z"/>
		<path class="st0" d="M246.2,34.1c-1.1-0.6-2-1.5-2.6-2.5c-0.6-1.1-0.9-2.3-0.9-3.7c0-1.4,0.3-2.6,0.9-3.7c0.6-1.1,1.5-1.9,2.6-2.5
			c1.1-0.6,2.3-0.9,3.7-0.9s2.6,0.3,3.7,0.9s1.9,1.4,2.6,2.5c0.6,1.1,0.9,2.3,0.9,3.7c0,1.4-0.3,2.6-0.9,3.7
			c-0.6,1.1-1.5,1.9-2.6,2.5c-1.1,0.6-2.3,0.9-3.7,0.9S247.3,34.7,246.2,34.1z M252.3,32.2c0.7-0.4,1.3-1,1.7-1.7
			c0.4-0.7,0.6-1.6,0.6-2.6c0-1-0.2-1.8-0.6-2.6c-0.4-0.7-1-1.3-1.7-1.7c-0.7-0.4-1.5-0.6-2.4-0.6s-1.7,0.2-2.4,0.6
			c-0.7,0.4-1.3,1-1.7,1.7c-0.4,0.7-0.6,1.6-0.6,2.6c0,1,0.2,1.8,0.6,2.6c0.4,0.7,1,1.3,1.7,1.7c0.7,0.4,1.5,0.6,2.4,0.6
			S251.6,32.6,252.3,32.2z"/>
	</g>
	<g class="st1">
		<path class="st4" d="M69.5,14h2.6v20.1h-2.6V14z"/>
		<path class="st4" d="M85.5,21.1c1.1,1,1.6,2.4,1.6,4.4v8.7h-2.5v-1.9c-0.4,0.7-1.1,1.2-1.9,1.5c-0.8,0.4-1.8,0.5-2.9,0.5
			c-1.6,0-2.9-0.4-3.9-1.2c-1-0.8-1.4-1.8-1.4-3.1c0-1.3,0.5-2.3,1.4-3c0.9-0.8,2.4-1.2,4.4-1.2h4.1v-0.5c0-1.1-0.3-2-1-2.6
			c-0.6-0.6-1.6-0.9-2.9-0.9c-0.8,0-1.7,0.1-2.5,0.4s-1.5,0.7-2.1,1.1L75,21.4c0.7-0.6,1.6-1.1,2.7-1.4c1-0.3,2.1-0.5,3.3-0.5
			C82.9,19.6,84.4,20.1,85.5,21.1z M82.9,31.6c0.7-0.4,1.2-1.1,1.6-1.9v-2h-4c-2.2,0-3.3,0.7-3.3,2.2c0,0.7,0.3,1.3,0.8,1.7
			c0.6,0.4,1.3,0.6,2.3,0.6C81.3,32.2,82.1,32,82.9,31.6z"/>
		<path class="st4" d="M101.8,20.5c1.1,0.6,2,1.5,2.6,2.6c0.6,1.1,0.9,2.4,0.9,3.8s-0.3,2.7-0.9,3.8c-0.6,1.1-1.5,2-2.6,2.6
			c-1.1,0.6-2.3,0.9-3.7,0.9c-1.1,0-2-0.2-2.9-0.6c-0.9-0.4-1.6-1-2.2-1.8v2.3h-2.5V14h2.6v7.9c0.6-0.8,1.3-1.3,2.2-1.7
			c0.9-0.4,1.8-0.6,2.8-0.6C99.5,19.6,100.7,19.9,101.8,20.5z M100.4,31.3c0.7-0.4,1.3-1,1.7-1.8s0.6-1.6,0.6-2.6s-0.2-1.9-0.6-2.6
			s-1-1.4-1.7-1.8c-0.7-0.4-1.6-0.6-2.5-0.6c-0.9,0-1.7,0.2-2.5,0.6c-0.7,0.4-1.3,1-1.7,1.8s-0.6,1.6-0.6,2.6s0.2,1.9,0.6,2.6
			s1,1.4,1.7,1.8c0.7,0.4,1.6,0.6,2.5,0.6C98.8,32,99.6,31.8,100.4,31.3z"/>
		<path class="st4" d="M108.3,33.8c-1.1-0.3-1.9-0.7-2.5-1.2l1.1-2.1c0.6,0.5,1.4,0.8,2.3,1.1c0.9,0.3,1.8,0.4,2.7,0.4
			c2.3,0,3.4-0.6,3.4-1.9c0-0.4-0.2-0.8-0.5-1c-0.3-0.3-0.7-0.4-1.2-0.6c-0.5-0.1-1.1-0.2-2-0.4c-1.2-0.2-2.1-0.4-2.8-0.6
			c-0.7-0.2-1.4-0.6-1.9-1.2c-0.5-0.6-0.8-1.3-0.8-2.4c0-1.3,0.5-2.3,1.6-3.1s2.5-1.2,4.4-1.2c1,0,1.9,0.1,2.9,0.4
			c1,0.2,1.7,0.6,2.4,0.9l-1.1,2.1c-1.2-0.8-2.6-1.1-4.1-1.1c-1.1,0-1.9,0.2-2.5,0.5c-0.6,0.4-0.9,0.8-0.9,1.4
			c0,0.5,0.2,0.8,0.5,1.1c0.3,0.3,0.7,0.5,1.2,0.6c0.5,0.1,1.2,0.3,2,0.4c1.2,0.2,2.1,0.4,2.8,0.6s1.3,0.6,1.8,1.2s0.8,1.3,0.8,2.3
			c0,1.3-0.6,2.3-1.7,3.1c-1.1,0.8-2.6,1.2-4.5,1.2C110.6,34.2,109.4,34.1,108.3,33.8z"/>
		<path class="st4" d="M119.1,33.7c-0.4-0.4-0.5-0.8-0.5-1.3c0-0.5,0.2-1,0.5-1.3c0.4-0.4,0.8-0.5,1.3-0.5c0.5,0,0.9,0.2,1.3,0.5
			c0.3,0.3,0.5,0.8,0.5,1.3s-0.2,1-0.5,1.3c-0.4,0.4-0.8,0.5-1.3,0.5C119.9,34.2,119.5,34.1,119.1,33.7z"/>
		<path class="st4" d="M146.9,21.2c1.1,1,1.6,2.6,1.6,4.7v8.3h-2.6v-8c0-1.4-0.3-2.4-1-3.1c-0.6-0.7-1.6-1.1-2.7-1.1
			c-1.3,0-2.4,0.4-3.1,1.2c-0.8,0.8-1.2,2-1.2,3.5v7.4h-2.6v-8c0-1.4-0.3-2.4-1-3.1c-0.6-0.7-1.6-1.1-2.7-1.1
			c-1.3,0-2.4,0.4-3.1,1.2c-0.8,0.8-1.2,2-1.2,3.5v7.4h-2.6V19.7h2.5v2.1c0.5-0.7,1.2-1.3,2.1-1.7c0.8-0.4,1.8-0.6,2.9-0.6
			c1.1,0,2.1,0.2,3,0.7c0.9,0.5,1.5,1.1,2,2c0.5-0.8,1.3-1.5,2.3-1.9c1-0.5,2.1-0.7,3.3-0.7C144.4,19.6,145.8,20.1,146.9,21.2z"/>
		<path class="st4" d="M161.7,21.1c1.1,1,1.6,2.4,1.6,4.4v8.7h-2.5v-1.9c-0.4,0.7-1.1,1.2-1.9,1.5c-0.8,0.4-1.8,0.5-2.9,0.5
			c-1.6,0-2.9-0.4-3.9-1.2c-1-0.8-1.4-1.8-1.4-3.1c0-1.3,0.5-2.3,1.4-3c0.9-0.8,2.4-1.2,4.4-1.2h4.1v-0.5c0-1.1-0.3-2-1-2.6
			c-0.6-0.6-1.6-0.9-2.9-0.9c-0.8,0-1.7,0.1-2.5,0.4s-1.5,0.7-2.1,1.1l-1.1-1.9c0.7-0.6,1.6-1.1,2.7-1.4c1-0.3,2.1-0.5,3.3-0.5
			C159.1,19.6,160.6,20.1,161.7,21.1z M159.1,31.6c0.7-0.4,1.2-1.1,1.6-1.9v-2h-4c-2.2,0-3.3,0.7-3.3,2.2c0,0.7,0.3,1.3,0.8,1.7
			c0.6,0.4,1.3,0.6,2.3,0.6C157.5,32.2,158.4,32,159.1,31.6z"/>
		<path class="st4" d="M174.8,33.2c-0.4,0.3-0.8,0.6-1.4,0.7c-0.6,0.2-1.1,0.3-1.7,0.3c-1.4,0-2.6-0.4-3.4-1.2
			c-0.8-0.8-1.2-1.9-1.2-3.3v-7.9h-2.4v-2.1h2.4v-3.1h2.6v3.1h4.1v2.1h-4.1v7.8c0,0.8,0.2,1.4,0.6,1.8c0.4,0.4,0.9,0.6,1.7,0.6
			c0.8,0,1.5-0.2,2-0.7L174.8,33.2z"/>
		<path class="st4" d="M188.6,21.2c1.1,1.1,1.6,2.6,1.6,4.6v8.3h-2.6v-8c0-1.4-0.3-2.4-1-3.1c-0.7-0.7-1.6-1.1-2.9-1.1
			c-1.4,0-2.5,0.4-3.3,1.2c-0.8,0.8-1.2,2-1.2,3.5v7.4h-2.6V14h2.6v7.8c0.5-0.7,1.3-1.2,2.1-1.6c0.9-0.4,1.9-0.6,2.9-0.6
			C186,19.6,187.5,20.1,188.6,21.2z"/>
		<path class="st4" d="M206.6,27.8H195c0.2,1.3,0.7,2.3,1.7,3c0.9,0.8,2.1,1.2,3.5,1.2c1.7,0,3.1-0.6,4.1-1.7l1.4,1.7
			c-0.7,0.8-1.5,1.3-2.4,1.7c-1,0.4-2,0.6-3.2,0.6c-1.5,0-2.9-0.3-4-0.9c-1.2-0.6-2.1-1.5-2.7-2.6c-0.6-1.1-1-2.4-1-3.8
			c0-1.4,0.3-2.6,0.9-3.8c0.6-1.1,1.5-2,2.6-2.6c1.1-0.6,2.3-0.9,3.7-0.9c1.4,0,2.6,0.3,3.7,0.9s1.9,1.5,2.5,2.6
			c0.6,1.1,0.9,2.4,0.9,3.8C206.7,27.2,206.7,27.4,206.6,27.8z M196.5,22.9c-0.8,0.8-1.3,1.8-1.5,3h9.2c-0.1-1.2-0.6-2.2-1.5-3
			c-0.8-0.8-1.9-1.2-3.1-1.2S197.3,22.2,196.5,22.9z"/>
		<path class="st4" d="M222.3,19.7v14.3h-2.5v-2.2c-0.5,0.7-1.2,1.3-2.1,1.7c-0.9,0.4-1.8,0.6-2.8,0.6c-1.9,0-3.4-0.5-4.5-1.6
			s-1.7-2.6-1.7-4.7v-8.3h2.6v8c0,1.4,0.3,2.4,1,3.2c0.7,0.7,1.6,1.1,2.9,1.1c1.4,0,2.5-0.4,3.2-1.2c0.8-0.8,1.2-2,1.2-3.5v-7.4
			H222.3z"/>
		<path class="st4" d="M226.6,33.8c-1.1-0.3-1.9-0.7-2.5-1.2l1.1-2.1c0.6,0.5,1.4,0.8,2.3,1.1c0.9,0.3,1.8,0.4,2.7,0.4
			c2.3,0,3.4-0.6,3.4-1.9c0-0.4-0.2-0.8-0.5-1c-0.3-0.3-0.7-0.4-1.2-0.6c-0.5-0.1-1.1-0.2-2-0.4c-1.2-0.2-2.1-0.4-2.8-0.6
			c-0.7-0.2-1.4-0.6-1.9-1.2c-0.5-0.6-0.8-1.3-0.8-2.4c0-1.3,0.5-2.3,1.6-3.1s2.5-1.2,4.4-1.2c1,0,1.9,0.1,2.9,0.4
			c1,0.2,1.7,0.6,2.4,0.9l-1.1,2.1c-1.2-0.8-2.6-1.1-4.1-1.1c-1.1,0-1.9,0.2-2.5,0.5c-0.6,0.4-0.9,0.8-0.9,1.4
			c0,0.5,0.2,0.8,0.5,1.1c0.3,0.3,0.7,0.5,1.2,0.6c0.5,0.1,1.2,0.3,2,0.4c1.2,0.2,2.1,0.4,2.8,0.6s1.3,0.6,1.8,1.2s0.8,1.3,0.8,2.3
			c0,1.3-0.6,2.3-1.7,3.1c-1.1,0.8-2.6,1.2-4.5,1.2C228.9,34.2,227.7,34.1,226.6,33.8z"/>
		<path class="st4" d="M237.5,33.7c-0.4-0.4-0.5-0.8-0.5-1.3c0-0.5,0.2-1,0.5-1.3c0.4-0.4,0.8-0.5,1.3-0.5c0.5,0,0.9,0.2,1.3,0.5
			c0.3,0.3,0.5,0.8,0.5,1.3s-0.2,1-0.5,1.3c-0.4,0.4-0.8,0.5-1.3,0.5C238.2,34.2,237.8,34.1,237.5,33.7z"/>
		<path class="st4" d="M243,16.5c-0.3-0.3-0.5-0.7-0.5-1.2c0-0.5,0.2-0.9,0.5-1.2s0.8-0.5,1.3-0.5c0.5,0,0.9,0.2,1.3,0.5
			c0.3,0.3,0.5,0.7,0.5,1.2c0,0.5-0.2,0.9-0.5,1.2c-0.3,0.3-0.8,0.5-1.3,0.5C243.7,17,243.3,16.8,243,16.5z M242.9,19.7h2.6v14.3
			h-2.6V19.7z"/>
		<path class="st4" d="M251.4,33.3c-1.1-0.6-2-1.5-2.7-2.6c-0.6-1.1-1-2.4-1-3.8c0-1.4,0.3-2.7,1-3.8c0.6-1.1,1.5-2,2.7-2.6
			c1.1-0.6,2.4-0.9,3.8-0.9s2.7,0.3,3.8,0.9s2,1.5,2.7,2.6c0.6,1.1,1,2.4,1,3.8c0,1.4-0.3,2.7-1,3.8c-0.6,1.1-1.5,2-2.7,2.6
			c-1.1,0.6-2.4,0.9-3.8,0.9S252.6,33.9,251.4,33.3z M257.7,31.3c0.7-0.4,1.3-1,1.7-1.8s0.6-1.6,0.6-2.6s-0.2-1.9-0.6-2.6
			s-1-1.4-1.7-1.8c-0.7-0.4-1.6-0.6-2.5-0.6s-1.7,0.2-2.5,0.6c-0.7,0.4-1.3,1-1.7,1.8s-0.6,1.6-0.6,2.6s0.2,1.9,0.6,2.6
			s1,1.4,1.7,1.8c0.7,0.4,1.6,0.6,2.5,0.6S257,31.8,257.7,31.3z"/>
	</g>
</g>
</svg>